<svg xmlns="http://www.w3.org/2000/svg" width="94.24" height="21.342" viewBox="0 0 94.24 21.342">
  <path id="パス_58" data-name="パス 58" d="M6.521-7.861H12.1l-2.051-4.566q-.178-.438-.369-1T9.3-14.7q-.164.656-.349,1.224t-.376,1.046Zm9,7.861-2.27-5.154H5.318L2.994,0H-.424L9.27-20.809,18.949,0Zm8.5-11.566h1.244a6.264,6.264,0,0,0,3.288-.636,2.37,2.37,0,0,0,.964-2.14,2.7,2.7,0,0,0-.889-2.3,6,6,0,0,0-3.363-.663H24.021Zm0,8.846h1.121A17.483,17.483,0,0,0,27.7-2.857a3.248,3.248,0,0,0,1.34-.479,2.642,2.642,0,0,0,.93-1.066A3.311,3.311,0,0,0,30.3-5.879a3.37,3.37,0,0,0-.4-1.668,2.768,2.768,0,0,0-1.135-1.107A3.962,3.962,0,0,0,27.706-9a9.093,9.093,0,0,0-1.579-.109H24.021ZM20.836,0V-20.016h5.045a15.882,15.882,0,0,1,3.192.232,4.648,4.648,0,0,1,1.757.766,4.55,4.55,0,0,1,1.442,1.791,5.755,5.755,0,0,1,.513,2.447,4.607,4.607,0,0,1-.738,2.673,3.849,3.849,0,0,1-2.146,1.5,4.119,4.119,0,0,1,2.755,1.593,5.337,5.337,0,0,1,1,3.329,6.338,6.338,0,0,1-.424,2.311,5.2,5.2,0,0,1-1.2,1.859A4.506,4.506,0,0,1,30-.342,16.965,16.965,0,0,1,25.908,0ZM54.1-9.967a7.612,7.612,0,0,0-.554-2.885,7.481,7.481,0,0,0-1.593-2.434,7.052,7.052,0,0,0-2.345-1.62,7.1,7.1,0,0,0-2.81-.567,7.175,7.175,0,0,0-2.81.561,7.163,7.163,0,0,0-2.372,1.627,7.24,7.24,0,0,0-1.586,2.42,7.731,7.731,0,0,0-.547,2.9A7.591,7.591,0,0,0,40.031-7.1a7.427,7.427,0,0,0,1.586,2.42,7.183,7.183,0,0,0,2.365,1.627,7.159,7.159,0,0,0,2.816.561,7.042,7.042,0,0,0,2.782-.561,7.354,7.354,0,0,0,2.372-1.627A7.5,7.5,0,0,0,53.546-7.1,7.525,7.525,0,0,0,54.1-9.967Zm3.391,0a10.291,10.291,0,0,1-.8,4.033,10.24,10.24,0,0,1-2.331,3.391A10.947,10.947,0,0,1,50.873-.26,10.672,10.672,0,0,1,46.8.533a10.815,10.815,0,0,1-4.122-.8,10.623,10.623,0,0,1-3.466-2.276A10.191,10.191,0,0,1,36.887-5.92a10.337,10.337,0,0,1-.793-4.047,10.4,10.4,0,0,1,.793-4.047,10.3,10.3,0,0,1,2.324-3.4,10.6,10.6,0,0,1,3.473-2.27,10.943,10.943,0,0,1,4.115-.779,10.855,10.855,0,0,1,4.095.779,10.622,10.622,0,0,1,3.466,2.27,10.517,10.517,0,0,1,2.331,3.425A10.306,10.306,0,0,1,57.49-9.967Zm3.65-10.049h3.213V-7.861A5.826,5.826,0,0,0,65.6-3.794a4.833,4.833,0,0,0,3.739,1.36,4.814,4.814,0,0,0,3.726-1.36A5.826,5.826,0,0,0,74.32-7.861V-20.016h3.254V-7.561q0,4.061-2.051,6.077T69.344.533q-4.129,0-6.166-2.01T61.141-7.561Zm27.385,2.762V0H85.271V-17.254H79.953v-2.762H93.816v2.762Z" transform="translate(0.424 20.809)" fill="#fff"/>
</svg>
