<svg xmlns="http://www.w3.org/2000/svg" width="132.357" height="21.588" viewBox="0 0 132.357 21.588">
  <path id="パス_63" data-name="パス 63" d="M18.361-15.148a10.017,10.017,0,0,0-2.919-1.764,8.979,8.979,0,0,0-3.233-.588A7.135,7.135,0,0,0,6.87-15.395,7.475,7.475,0,0,0,4.813-9.939a7.444,7.444,0,0,0,2,5.346,6.677,6.677,0,0,0,5.052,2.105,9.2,9.2,0,0,0,3.384-.629,10.728,10.728,0,0,0,3.083-1.9V-1.34A9.6,9.6,0,0,1,15.477.068a11.578,11.578,0,0,1-3.35.465A11.692,11.692,0,0,1,7.882-.219,9.856,9.856,0,0,1,4.457-2.434,9.846,9.846,0,0,1,2.208-5.817a10.983,10.983,0,0,1-.786-4.149A10.88,10.88,0,0,1,2.208-14.1a9.973,9.973,0,0,1,2.276-3.4A10.031,10.031,0,0,1,7.9-19.735a11.284,11.284,0,0,1,4.17-.759,10.952,10.952,0,0,1,3.363.513,11.78,11.78,0,0,1,3.1,1.552ZM39.525-9.967a7.612,7.612,0,0,0-.554-2.885,7.481,7.481,0,0,0-1.593-2.434,7.052,7.052,0,0,0-2.345-1.62,7.1,7.1,0,0,0-2.81-.567,7.175,7.175,0,0,0-2.81.561,7.163,7.163,0,0,0-2.372,1.627,7.24,7.24,0,0,0-1.586,2.42,7.731,7.731,0,0,0-.547,2.9A7.591,7.591,0,0,0,25.457-7.1a7.427,7.427,0,0,0,1.586,2.42,7.183,7.183,0,0,0,2.365,1.627,7.159,7.159,0,0,0,2.816.561,7.042,7.042,0,0,0,2.782-.561,7.354,7.354,0,0,0,2.372-1.627A7.5,7.5,0,0,0,38.972-7.1,7.525,7.525,0,0,0,39.525-9.967Zm3.391,0a10.291,10.291,0,0,1-.8,4.033,10.24,10.24,0,0,1-2.331,3.391A10.947,10.947,0,0,1,36.3-.26a10.672,10.672,0,0,1-4.074.793,10.815,10.815,0,0,1-4.122-.8,10.623,10.623,0,0,1-3.466-2.276A10.191,10.191,0,0,1,22.313-5.92a10.337,10.337,0,0,1-.793-4.047,10.4,10.4,0,0,1,.793-4.047,10.3,10.3,0,0,1,2.324-3.4,10.6,10.6,0,0,1,3.473-2.27,10.943,10.943,0,0,1,4.115-.779,10.855,10.855,0,0,1,4.095.779,10.622,10.622,0,0,1,3.466,2.27,10.517,10.517,0,0,1,2.331,3.425A10.306,10.306,0,0,1,42.916-9.967ZM46.648,0V-20.809L59.363-8.572q.52.52,1.053,1.107t1.121,1.326V-20.016h3.008V.779L51.57-11.676q-.52-.506-1-1.066t-.923-1.176V0ZM75.605-17.254V0H72.352V-17.254H67.033v-2.762H80.9v2.762Zm12,9.393h5.578l-2.051-4.566q-.178-.438-.369-1T90.385-14.7q-.164.656-.349,1.224t-.376,1.046Zm9,7.861-2.27-5.154h-7.93L84.082,0H80.664l9.693-20.809L100.037,0Zm21.383-15.148a10.017,10.017,0,0,0-2.919-1.764,8.979,8.979,0,0,0-3.233-.588,7.135,7.135,0,0,0-5.339,2.105,7.475,7.475,0,0,0-2.058,5.455,7.444,7.444,0,0,0,2,5.346,6.677,6.677,0,0,0,5.052,2.105,9.2,9.2,0,0,0,3.384-.629,10.728,10.728,0,0,0,3.083-1.9V-1.34A9.6,9.6,0,0,1,115.1.068a11.578,11.578,0,0,1-3.35.465,11.692,11.692,0,0,1-4.245-.752,9.856,9.856,0,0,1-3.425-2.215,9.846,9.846,0,0,1-2.249-3.384,10.983,10.983,0,0,1-.786-4.149,10.88,10.88,0,0,1,.786-4.136,9.973,9.973,0,0,1,2.276-3.4,10.031,10.031,0,0,1,3.418-2.235,11.284,11.284,0,0,1,4.17-.759,10.952,10.952,0,0,1,3.363.513,11.78,11.78,0,0,1,3.1,1.552Zm10.5-2.105V0h-3.254V-17.254h-5.318v-2.762h13.863v2.762Z" transform="translate(-1.422 20.809)" fill="#050521"/>
</svg>
