<svg xmlns="http://www.w3.org/2000/svg" width="151.406" height="19.492" viewBox="0 0 151.406 19.492">
  <path id="header-logo" d="M.82-2.861l1.855-.859a2.558,2.558,0,0,0,.967,1.46,3.015,3.015,0,0,0,1.8.5,2.3,2.3,0,0,0,1.646-.576A2.021,2.021,0,0,0,7.7-3.877q0-1.26-2.09-2.246-.293-.146-.449-.215A10.094,10.094,0,0,1,2.007-8.423a3.419,3.419,0,0,1-.786-2.28,3.656,3.656,0,0,1,1.187-2.832,4.432,4.432,0,0,1,3.11-1.084,5.253,5.253,0,0,1,2.646.61,3.216,3.216,0,0,1,1.475,1.753l-1.816.938A3.027,3.027,0,0,0,6.88-12.3,2.215,2.215,0,0,0,5.7-12.617a2.166,2.166,0,0,0-1.489.488,1.66,1.66,0,0,0-.552,1.309q0,1.289,2.422,2.4l.293.137a8.614,8.614,0,0,1,2.91,1.909,3.476,3.476,0,0,1,.791,2.329A4.206,4.206,0,0,1,8.8-.815,4.859,4.859,0,0,1,5.342.381a5,5,0,0,1-2.993-.84A3.927,3.927,0,0,1,.82-2.861ZM12.441,0V-15.137h1.992v7.393a3.993,3.993,0,0,1,1.494-1.4,4.548,4.548,0,0,1,2.09-.439,4.282,4.282,0,0,1,1.763.327,2.557,2.557,0,0,1,1.138.972,2.646,2.646,0,0,1,.352.889,9.906,9.906,0,0,1,.107,1.777V0H19.238V-4.756a4.477,4.477,0,0,0-.444-2.427,1.841,1.841,0,0,0-1.577-.6,3.072,3.072,0,0,0-1.323.273,2.191,2.191,0,0,0-.913.771,2.1,2.1,0,0,0-.327.854,10.584,10.584,0,0,0-.093,1.665V0ZM31.475-4.6a3.089,3.089,0,0,0-.83-2.183,2.666,2.666,0,0,0-2.031-.894,2.671,2.671,0,0,0-2.026.894A3.079,3.079,0,0,0,25.752-4.6a3.079,3.079,0,0,0,.835,2.183,2.671,2.671,0,0,0,2.026.894,2.671,2.671,0,0,0,2.026-.894A3.079,3.079,0,0,0,31.475-4.6Zm-7.959-.02A4.835,4.835,0,0,1,23.9-6.538,4.92,4.92,0,0,1,25.01-8.145,4.986,4.986,0,0,1,26.65-9.209a5.185,5.185,0,0,1,1.943-.371,5.224,5.224,0,0,1,1.968.371,4.991,4.991,0,0,1,1.655,1.094A4.908,4.908,0,0,1,33.33-6.5a4.78,4.78,0,0,1,.381,1.885A4.933,4.933,0,0,1,33.335-2.7a4.7,4.7,0,0,1-1.1,1.592A5.294,5.294,0,0,1,30.547,0a5.151,5.151,0,0,1-1.953.376A5.1,5.1,0,0,1,26.66,0a5.008,5.008,0,0,1-1.65-1.089A5.015,5.015,0,0,1,23.9-2.705,4.853,4.853,0,0,1,23.516-4.619ZM35.957,0V-15.137h2.119V-5.42l3.877-3.838H44.57l-4.2,4.082L44.971,0H42.236l-4.16-4.775V0Zm17.6-4.6a3.089,3.089,0,0,0-.83-2.183,2.666,2.666,0,0,0-2.031-.894,2.671,2.671,0,0,0-2.026.894A3.079,3.079,0,0,0,47.832-4.6a3.079,3.079,0,0,0,.835,2.183,2.671,2.671,0,0,0,2.026.894,2.671,2.671,0,0,0,2.026-.894A3.079,3.079,0,0,0,53.555-4.6ZM45.6-4.619a4.835,4.835,0,0,1,.386-1.919A4.92,4.92,0,0,1,47.09-8.145,4.986,4.986,0,0,1,48.73-9.209a5.185,5.185,0,0,1,1.943-.371,5.224,5.224,0,0,1,1.968.371A4.991,4.991,0,0,1,54.3-8.115,4.908,4.908,0,0,1,55.41-6.5a4.78,4.78,0,0,1,.381,1.885A4.933,4.933,0,0,1,55.415-2.7a4.7,4.7,0,0,1-1.1,1.592A5.294,5.294,0,0,1,52.627,0a5.151,5.151,0,0,1-1.953.376A5.1,5.1,0,0,1,48.74,0a5.008,5.008,0,0,1-1.65-1.089,5.015,5.015,0,0,1-1.113-1.621A4.853,4.853,0,0,1,45.6-4.619ZM64.248,0V-14.3h2.324v5.918L71.709-14.3h2.842L68.887-7.939,75.225,0h-3L66.572-7.3V0ZM76.289-13.262a1.26,1.26,0,0,1,.4-.928,1.3,1.3,0,0,1,.942-.391,1.278,1.278,0,0,1,.942.376,1.278,1.278,0,0,1,.376.942,1.3,1.3,0,0,1-.381.952,1.266,1.266,0,0,1-.937.386,1.287,1.287,0,0,1-.942-.4A1.287,1.287,0,0,1,76.289-13.262ZM76.572,0V-9.258h2.119V0Zm5.146,0V-9.258h1.992v1.514a3.993,3.993,0,0,1,1.494-1.4,4.548,4.548,0,0,1,2.09-.439,4.282,4.282,0,0,1,1.763.327,2.557,2.557,0,0,1,1.138.972,2.646,2.646,0,0,1,.352.889,9.906,9.906,0,0,1,.107,1.777V0H88.516V-4.756a4.477,4.477,0,0,0-.444-2.427,1.841,1.841,0,0,0-1.577-.6,3.072,3.072,0,0,0-1.323.273,2.191,2.191,0,0,0-.913.771,2.1,2.1,0,0,0-.327.854,10.584,10.584,0,0,0-.093,1.665V0ZM95.527-9.258v5.215a2.756,2.756,0,0,0,.557,1.934,2.4,2.4,0,0,0,1.807.586A2.4,2.4,0,0,0,99.7-2.109a2.756,2.756,0,0,0,.557-1.934V-9.258h2.119v4.58A5.738,5.738,0,0,1,101.309-.82a4.324,4.324,0,0,1-3.4,1.2A4.4,4.4,0,0,1,94.473-.811a5.733,5.733,0,0,1-1.064-3.867v-4.58Zm16.357,4.6a3.389,3.389,0,0,0-.669-2.236,2.3,2.3,0,0,0-1.87-.8,2.329,2.329,0,0,0-1.89.825,3.471,3.471,0,0,0-.688,2.29,3.473,3.473,0,0,0,.664,2.275,2.3,2.3,0,0,0,1.875.8,2.3,2.3,0,0,0,1.86-.869A3.473,3.473,0,0,0,111.885-4.658Zm2.061,4.082a5.394,5.394,0,0,1-1.084,3.823,4.976,4.976,0,0,1-3.652,1.108,5.207,5.207,0,0,1-3.057-.806,2.55,2.55,0,0,1-1.162-2.144l2.275-.01a1.119,1.119,0,0,0,.557.908,2.725,2.725,0,0,0,1.426.313,2.686,2.686,0,0,0,1.953-.6,2.779,2.779,0,0,0,.605-1.992l.02-1.23A3.717,3.717,0,0,1,110.5-.01a3.726,3.726,0,0,1-1.733.391,3.822,3.822,0,0,1-3.091-1.343,5.54,5.54,0,0,1-1.128-3.677A5.354,5.354,0,0,1,105.7-8.218a3.752,3.752,0,0,1,3.008-1.362,3.76,3.76,0,0,1,1.938.474,2.775,2.775,0,0,1,1.177,1.362V-9.258h2.119ZM125.586,0h-2.119V-1.2A3.717,3.717,0,0,1,122.144-.01a3.726,3.726,0,0,1-1.733.391,3.822,3.822,0,0,1-3.091-1.343,5.54,5.54,0,0,1-1.128-3.677,5.354,5.354,0,0,1,1.152-3.579,3.752,3.752,0,0,1,3.008-1.362,3.76,3.76,0,0,1,1.938.474,2.775,2.775,0,0,1,1.177,1.362V-9.258h2.119Zm-2.061-4.658a3.389,3.389,0,0,0-.669-2.236,2.3,2.3,0,0,0-1.87-.8,2.329,2.329,0,0,0-1.89.825,3.471,3.471,0,0,0-.688,2.29,3.473,3.473,0,0,0,.664,2.275,2.3,2.3,0,0,0,1.875.8,2.3,2.3,0,0,0,1.86-.869A3.473,3.473,0,0,0,123.525-4.658ZM137.373.557l-2.139-4.814q-.244-.557-.4-.991t-.283-.854q-.215.635-.381,1.089t-.264.679l-2.2,4.893-4.795-9.814h2.256l2.08,4.463a4.769,4.769,0,0,1,.249.776q.122.493.21,1.089a3.006,3.006,0,0,1,.117-.732,6.8,6.8,0,0,1,.361-.937l2.266-5h.176l2.3,5a5.211,5.211,0,0,1,.317.869,4.008,4.008,0,0,1,.122.8,8.618,8.618,0,0,1,.225-1,6.114,6.114,0,0,1,.313-.85l2.041-4.482h2.236ZM152.227,0h-2.119V-1.2A3.717,3.717,0,0,1,148.784-.01a3.726,3.726,0,0,1-1.733.391A3.822,3.822,0,0,1,143.96-.962a5.54,5.54,0,0,1-1.128-3.677,5.354,5.354,0,0,1,1.152-3.579,3.752,3.752,0,0,1,3.008-1.362,3.76,3.76,0,0,1,1.938.474,2.775,2.775,0,0,1,1.177,1.362V-9.258h2.119Zm-2.061-4.658a3.389,3.389,0,0,0-.669-2.236,2.3,2.3,0,0,0-1.87-.8,2.329,2.329,0,0,0-1.89.825,3.471,3.471,0,0,0-.688,2.29,3.473,3.473,0,0,0,.664,2.275,2.3,2.3,0,0,0,1.875.8,2.3,2.3,0,0,0,1.86-.869A3.473,3.473,0,0,0,150.166-4.658Z" transform="translate(-0.82 15.137)" fill="#fff"/>
</svg>
