<svg xmlns="http://www.w3.org/2000/svg" width="123.922" height="21.67" viewBox="0 0 123.922 21.67">
  <path id="パス_57" data-name="パス 57" d="M18.621-9.885q-.055-.232-.178-1.285-.109-.875-.191-1.449a10.029,10.029,0,0,1-.349,1.367,11.649,11.649,0,0,1-.567,1.395L12.1.807,6.863-10.076q-.328-.67-.567-1.3t-.417-1.244a12.473,12.473,0,0,1-.1,1.319A14.117,14.117,0,0,1,5.51-9.857L3.363,0H.369L5.1-20.863,11.006-8.23q.137.3.417,1T12.1-5.51A21.918,21.918,0,0,1,13-7.7q.164-.355.246-.547l5.77-12.619L23.857,0H20.836ZM26.455,0V-20.016h11.17v2.762H29.709v5.018h7.916v2.857H29.709v6.467h7.916V0ZM40.209-4.006l2.6-1.2A3.581,3.581,0,0,0,44.16-3.165a4.22,4.22,0,0,0,2.516.7,3.219,3.219,0,0,0,2.3-.807,2.83,2.83,0,0,0,.854-2.16q0-1.764-2.926-3.145-.41-.205-.629-.3a14.132,14.132,0,0,1-4.409-2.919,4.786,4.786,0,0,1-1.1-3.192,5.119,5.119,0,0,1,1.661-3.965,6.2,6.2,0,0,1,4.354-1.518,7.354,7.354,0,0,1,3.705.854,4.5,4.5,0,0,1,2.064,2.454l-2.543,1.313a4.238,4.238,0,0,0-1.319-1.381,3.1,3.1,0,0,0-1.647-.437,3.033,3.033,0,0,0-2.085.684,2.324,2.324,0,0,0-.772,1.832q0,1.8,3.391,3.363.26.123.41.191a12.06,12.06,0,0,1,4.074,2.673A4.866,4.866,0,0,1,53.17-5.66a5.889,5.889,0,0,1-1.791,4.519A6.8,6.8,0,0,1,46.539.533a7,7,0,0,1-4.19-1.176A5.5,5.5,0,0,1,40.209-4.006Zm15.367,0,2.6-1.2a3.581,3.581,0,0,0,1.354,2.044,4.22,4.22,0,0,0,2.516.7,3.219,3.219,0,0,0,2.3-.807,2.83,2.83,0,0,0,.854-2.16q0-1.764-2.926-3.145-.41-.205-.629-.3a14.132,14.132,0,0,1-4.409-2.919,4.786,4.786,0,0,1-1.1-3.192A5.119,5.119,0,0,1,57.8-18.949a6.2,6.2,0,0,1,4.354-1.518,7.354,7.354,0,0,1,3.705.854,4.5,4.5,0,0,1,2.064,2.454l-2.543,1.313a4.238,4.238,0,0,0-1.319-1.381,3.1,3.1,0,0,0-1.647-.437,3.033,3.033,0,0,0-2.085.684,2.324,2.324,0,0,0-.772,1.832q0,1.8,3.391,3.363.26.123.41.191A12.06,12.06,0,0,1,67.43-8.921,4.866,4.866,0,0,1,68.537-5.66a5.889,5.889,0,0,1-1.791,4.519A6.8,6.8,0,0,1,61.906.533a7,7,0,0,1-4.19-1.176A5.5,5.5,0,0,1,55.576-4.006Zm20.74-3.855h5.578l-2.051-4.566q-.178-.438-.369-1T79.092-14.7q-.164.656-.349,1.224t-.376,1.046Zm9,7.861-2.27-5.154h-7.93L72.789,0H69.371l9.693-20.809L88.744,0Zm16.406-10.254h7.93q0,.205.014.574.041.971.041,1.313a8.7,8.7,0,0,1-2.42,6.563A9.417,9.417,0,0,1,100.461.533a12.413,12.413,0,0,1-4.389-.725A9.31,9.31,0,0,1,92.7-2.379a9.935,9.935,0,0,1-2.181-3.4,11.461,11.461,0,0,1-.759-4.184,11.077,11.077,0,0,1,.772-4.184,9.677,9.677,0,0,1,2.29-3.377,9.866,9.866,0,0,1,3.432-2.187,11.7,11.7,0,0,1,4.211-.752,9.986,9.986,0,0,1,4.231.861,9.43,9.43,0,0,1,3.329,2.639l-2.379,1.791a6.586,6.586,0,0,0-2.283-1.75,6.833,6.833,0,0,0-2.844-.574A7.137,7.137,0,0,0,95.2-15.415a7.387,7.387,0,0,0-2.058,5.421,7.552,7.552,0,0,0,2.058,5.5,7.123,7.123,0,0,0,5.339,2.112,6.77,6.77,0,0,0,4.389-1.3,4.317,4.317,0,0,0,1.6-3.541v-.287h-4.812ZM113.121,0V-20.016h11.17v2.762h-7.916v5.018h7.916v2.857h-7.916v6.467h7.916V0Z" transform="translate(-0.369 20.863)" fill="#050521"/>
</svg>
