<svg xmlns="http://www.w3.org/2000/svg" width="264.551" height="27.289" viewBox="0 0 264.551 27.289">
  <path id="notfound-ttl" d="M10.049-13.521,4.949-6.33H9.967v-5.209q0-.41.021-.916T10.049-13.521ZM9.967,0V-4.061H.369l11.648-16.16h.916V-6.33h2.434v2.27H12.934V0Zm22.6-9.639a12.7,12.7,0,0,1-1.921,7.472,6.135,6.135,0,0,1-5.284,2.7,6.086,6.086,0,0,1-5.3-2.728Q18.17-4.922,18.17-9.857q0-4.895,1.914-7.629A6.133,6.133,0,0,1,25.4-20.221a6.03,6.03,0,0,1,5.3,2.741Q32.566-14.738,32.566-9.639ZM25.307-2.27a3.218,3.218,0,0,0,3-1.907,12.644,12.644,0,0,0,1-5.708,12.667,12.667,0,0,0-.991-5.626,3.123,3.123,0,0,0-2.892-1.935,3.22,3.22,0,0,0-2.994,1.928A12.59,12.59,0,0,0,21.424-9.83a12.538,12.538,0,0,0,1,5.605A3.131,3.131,0,0,0,25.307-2.27ZM43.873-13.521l-5.1,7.191h5.018v-5.209q0-.41.021-.916T43.873-13.521ZM43.791,0V-4.061h-9.6l11.648-16.16h.916V-6.33h2.434v2.27H46.758V0ZM64.736-11.648h.834a7.4,7.4,0,0,0,3.609-.588,2.29,2.29,0,0,0,.9-2.078,2.53,2.53,0,0,0-.964-2.256,6.763,6.763,0,0,0-3.548-.656h-.834Zm-.205,2.666V0H61.482V-20.016H66.4a15.623,15.623,0,0,1,3.22.239,5,5,0,0,1,1.8.786A4.665,4.665,0,0,1,72.9-17.11a6.264,6.264,0,0,1,.533,2.6,6.406,6.406,0,0,1-.533,2.625,4.538,4.538,0,0,1-1.477,1.887,4.911,4.911,0,0,1-1.8.779,16.071,16.071,0,0,1-3.22.232H64.531ZM88.334,0H85.367V-1.682A5.2,5.2,0,0,1,83.515-.014a5.216,5.216,0,0,1-2.427.547,5.35,5.35,0,0,1-4.327-1.88,7.757,7.757,0,0,1-1.579-5.147A7.5,7.5,0,0,1,76.795-11.5a5.252,5.252,0,0,1,4.211-1.907,5.264,5.264,0,0,1,2.714.663,3.884,3.884,0,0,1,1.647,1.907v-2.119h2.967ZM85.449-6.521a4.745,4.745,0,0,0-.937-3.131,3.224,3.224,0,0,0-2.618-1.121,3.261,3.261,0,0,0-2.646,1.155,4.86,4.86,0,0,0-.964,3.206,4.862,4.862,0,0,0,.93,3.186A3.22,3.22,0,0,0,81.84-2.105a3.221,3.221,0,0,0,2.6-1.217A4.862,4.862,0,0,0,85.449-6.521Zm16.3,0a4.745,4.745,0,0,0-.937-3.131,3.224,3.224,0,0,0-2.618-1.121,3.261,3.261,0,0,0-2.646,1.155,4.86,4.86,0,0,0-.964,3.206,4.862,4.862,0,0,0,.93,3.186,3.22,3.22,0,0,0,2.625,1.121,3.221,3.221,0,0,0,2.6-1.217A4.862,4.862,0,0,0,101.746-6.521Zm2.885,5.715q0,3.8-1.518,5.353T98,6.1A7.29,7.29,0,0,1,93.721,4.97a3.57,3.57,0,0,1-1.627-3l3.186-.014a1.567,1.567,0,0,0,.779,1.271,3.815,3.815,0,0,0,2,.438,3.761,3.761,0,0,0,2.734-.834,3.891,3.891,0,0,0,.848-2.789l.027-1.723A5.2,5.2,0,0,1,99.812-.014a5.216,5.216,0,0,1-2.427.547,5.35,5.35,0,0,1-4.327-1.88,7.757,7.757,0,0,1-1.579-5.147A7.5,7.5,0,0,1,93.092-11.5,5.252,5.252,0,0,1,97.3-13.412a5.264,5.264,0,0,1,2.714.663,3.884,3.884,0,0,1,1.647,1.907v-2.119h2.967Zm16.584-5.236H110.852a4.344,4.344,0,0,0,1.08,2.837,3.4,3.4,0,0,0,2.584,1.019,4.417,4.417,0,0,0,2.393-.6,4.96,4.96,0,0,0,1.668-1.941l2.5,1.395a7.573,7.573,0,0,1-2.707,2.912,7.284,7.284,0,0,1-3.787.957,6.6,6.6,0,0,1-4.963-1.9,6.97,6.97,0,0,1-1.846-5.072,6.891,6.891,0,0,1,1.907-5.011,6.537,6.537,0,0,1,4.9-1.962,6.511,6.511,0,0,1,4.881,1.791,6.877,6.877,0,0,1,1.75,5.018Zm-3.076-2a3.14,3.14,0,0,0-1.066-2.126,3.718,3.718,0,0,0-2.434-.731,3.653,3.653,0,0,0-2.352.711,3.816,3.816,0,0,0-1.244,2.146ZM133,0V-20.809L145.715-8.572q.52.52,1.053,1.107t1.121,1.326V-20.016H150.9V.779L137.922-11.676q-.52-.506-1-1.066t-.923-1.176V0Zm32.43-6.439A4.324,4.324,0,0,0,164.268-9.5a3.733,3.733,0,0,0-2.844-1.251A3.739,3.739,0,0,0,158.587-9.5a4.31,4.31,0,0,0-1.169,3.056,4.31,4.31,0,0,0,1.169,3.056,3.739,3.739,0,0,0,2.837,1.251,3.739,3.739,0,0,0,2.837-1.251A4.31,4.31,0,0,0,165.43-6.439Zm-11.143-.027a6.769,6.769,0,0,1,.54-2.687,6.888,6.888,0,0,1,1.552-2.249,6.981,6.981,0,0,1,2.3-1.49,7.258,7.258,0,0,1,2.721-.52,7.314,7.314,0,0,1,2.755.52,6.987,6.987,0,0,1,2.317,1.531,6.871,6.871,0,0,1,1.559,2.256,6.692,6.692,0,0,1,.533,2.639,6.906,6.906,0,0,1-.526,2.693A6.587,6.587,0,0,1,166.5-1.545,7.412,7.412,0,0,1,164.131.007,7.211,7.211,0,0,1,161.4.533a7.141,7.141,0,0,1-2.707-.526,7.012,7.012,0,0,1-2.311-1.524,7.02,7.02,0,0,1-1.559-2.27A6.794,6.794,0,0,1,154.287-6.467ZM172.4,0V-10.363h-2.27v-2.6h2.27v-4.908h2.967v4.908h2.27v2.6h-2.27V0Zm16.488,0V-20.016h11.17v2.762h-7.916v4.99h7.916v2.857h-7.916V0Zm24.637-6.439A4.324,4.324,0,0,0,212.365-9.5a3.733,3.733,0,0,0-2.844-1.251A3.739,3.739,0,0,0,206.685-9.5a4.31,4.31,0,0,0-1.169,3.056,4.31,4.31,0,0,0,1.169,3.056,3.739,3.739,0,0,0,2.837,1.251,3.739,3.739,0,0,0,2.837-1.251A4.31,4.31,0,0,0,213.527-6.439Zm-11.143-.027a6.769,6.769,0,0,1,.54-2.687,6.888,6.888,0,0,1,1.552-2.249,6.981,6.981,0,0,1,2.3-1.49,7.258,7.258,0,0,1,2.721-.52,7.314,7.314,0,0,1,2.755.52,6.987,6.987,0,0,1,2.317,1.531,6.871,6.871,0,0,1,1.559,2.256,6.692,6.692,0,0,1,.533,2.639,6.906,6.906,0,0,1-.526,2.693,6.587,6.587,0,0,1-1.538,2.229A7.412,7.412,0,0,1,212.229.007a7.211,7.211,0,0,1-2.734.526,7.141,7.141,0,0,1-2.707-.526,7.012,7.012,0,0,1-2.311-1.524,7.02,7.02,0,0,1-1.559-2.27A6.794,6.794,0,0,1,202.385-6.467Zm20.289-6.494v7.3a3.858,3.858,0,0,0,.779,2.707,3.361,3.361,0,0,0,2.529.82,3.361,3.361,0,0,0,2.529-.82,3.858,3.858,0,0,0,.779-2.707v-7.3h2.967v6.412q0,3.719-1.49,5.4T226.01.533q-3.322,0-4.812-1.668t-1.49-5.414v-6.412ZM236.264,0V-12.961h2.789v2.119a5.59,5.59,0,0,1,2.092-1.955,6.368,6.368,0,0,1,2.926-.615,6,6,0,0,1,2.468.458,3.58,3.58,0,0,1,1.593,1.36,3.7,3.7,0,0,1,.492,1.244,13.868,13.868,0,0,1,.15,2.488V0h-2.994V-6.658a6.267,6.267,0,0,0-.622-3.4,2.578,2.578,0,0,0-2.208-.841,4.3,4.3,0,0,0-1.853.383,3.067,3.067,0,0,0-1.278,1.08,2.947,2.947,0,0,0-.458,1.2,14.817,14.817,0,0,0-.13,2.331V0Zm25.771-6.521a4.745,4.745,0,0,0-.937-3.131,3.224,3.224,0,0,0-2.618-1.121,3.261,3.261,0,0,0-2.646,1.155,4.86,4.86,0,0,0-.964,3.206,4.862,4.862,0,0,0,.93,3.186,3.22,3.22,0,0,0,2.625,1.121,3.222,3.222,0,0,0,2.611-1.21A4.879,4.879,0,0,0,262.035-6.521Zm-.082-14.67h2.967V0h-2.967V-1.682A5.2,5.2,0,0,1,260.1-.014a5.216,5.216,0,0,1-2.427.547,5.35,5.35,0,0,1-4.327-1.88,7.757,7.757,0,0,1-1.579-5.147,7.5,7.5,0,0,1,1.613-5.011,5.252,5.252,0,0,1,4.211-1.907,5.264,5.264,0,0,1,2.714.663,3.884,3.884,0,0,1,1.647,1.907Z" transform="translate(-0.369 21.191)" fill="#050521"/>
</svg>
