<svg xmlns="http://www.w3.org/2000/svg" width="69.836" height="21.027" viewBox="0 0 69.836 21.027">
  <path id="パス_61" data-name="パス 61" d="M5.551-11.648h.834a7.4,7.4,0,0,0,3.609-.588,2.29,2.29,0,0,0,.9-2.078,2.53,2.53,0,0,0-.964-2.256,6.763,6.763,0,0,0-3.548-.656H5.551ZM5.346-8.982V0H2.3V-20.016H7.219a15.623,15.623,0,0,1,3.22.239,5,5,0,0,1,1.8.786,4.665,4.665,0,0,1,1.477,1.88,6.264,6.264,0,0,1,.533,2.6,6.406,6.406,0,0,1-.533,2.625,4.538,4.538,0,0,1-1.477,1.887,4.911,4.911,0,0,1-1.8.779,16.071,16.071,0,0,1-3.22.232H5.346Zm15.107-2.5h.588a6.564,6.564,0,0,0,3.432-.6,2.44,2.44,0,0,0,.848-2.133,2.723,2.723,0,0,0-.909-2.331,5.979,5.979,0,0,0-3.37-.677h-.588Zm-.205,2.529V0H17.2V-20.016h4.539a14.228,14.228,0,0,1,3.1.26,4.858,4.858,0,0,1,1.88.861,4.759,4.759,0,0,1,1.436,1.873,6.172,6.172,0,0,1,.506,2.516,5.617,5.617,0,0,1-1.162,3.767,5.115,5.115,0,0,1-3.432,1.634L30.953,0H27.275L20.617-8.955ZM32.936,0V-20.016h3.254V0ZM56.93-15.148a10.017,10.017,0,0,0-2.919-1.764,8.979,8.979,0,0,0-3.233-.588,7.135,7.135,0,0,0-5.339,2.105,7.475,7.475,0,0,0-2.058,5.455,7.444,7.444,0,0,0,2,5.346,6.677,6.677,0,0,0,5.052,2.105,9.2,9.2,0,0,0,3.384-.629,10.728,10.728,0,0,0,3.083-1.9V-1.34A9.6,9.6,0,0,1,54.045.068,11.578,11.578,0,0,1,50.7.533,11.692,11.692,0,0,1,46.45-.219a9.856,9.856,0,0,1-3.425-2.215,9.846,9.846,0,0,1-2.249-3.384,10.983,10.983,0,0,1-.786-4.149,10.88,10.88,0,0,1,.786-4.136,9.973,9.973,0,0,1,2.276-3.4,10.031,10.031,0,0,1,3.418-2.235,11.284,11.284,0,0,1,4.17-.759A10.952,10.952,0,0,1,54-19.981a11.78,11.78,0,0,1,3.1,1.552ZM60.963,0V-20.016h11.17v2.762H64.217v5.018h7.916v2.857H64.217v6.467h7.916V0Z" transform="translate(-2.297 20.494)" fill="#fff"/>
</svg>
