<svg xmlns="http://www.w3.org/2000/svg" width="103.66" height="21.273" viewBox="0 0 103.66 21.273">
  <path id="パス_59" data-name="パス 59" d="M1.148-4.006l2.6-1.2A3.581,3.581,0,0,0,5.1-3.165a4.22,4.22,0,0,0,2.516.7,3.219,3.219,0,0,0,2.3-.807,2.83,2.83,0,0,0,.854-2.16q0-1.764-2.926-3.145-.41-.205-.629-.3A14.132,14.132,0,0,1,2.81-11.792a4.786,4.786,0,0,1-1.1-3.192A5.119,5.119,0,0,1,3.37-18.949a6.2,6.2,0,0,1,4.354-1.518,7.354,7.354,0,0,1,3.705.854,4.5,4.5,0,0,1,2.064,2.454l-2.543,1.313a4.238,4.238,0,0,0-1.319-1.381,3.1,3.1,0,0,0-1.647-.437A3.033,3.033,0,0,0,5.9-16.98a2.324,2.324,0,0,0-.772,1.832q0,1.8,3.391,3.363.26.123.41.191A12.06,12.06,0,0,1,13-8.921,4.866,4.866,0,0,1,14.109-5.66a5.889,5.889,0,0,1-1.791,4.519A6.8,6.8,0,0,1,7.479.533,7,7,0,0,1,3.288-.643,5.5,5.5,0,0,1,1.148-4.006ZM17.664,0V-20.016h11.17v2.762H20.918v5.018h7.916v2.857H20.918v6.467h7.916V0ZM35.82-11.484h.588a6.564,6.564,0,0,0,3.432-.6,2.44,2.44,0,0,0,.848-2.133,2.723,2.723,0,0,0-.909-2.331,5.979,5.979,0,0,0-3.37-.677H35.82Zm-.205,2.529V0H32.566V-20.016h4.539a14.228,14.228,0,0,1,3.1.26,4.858,4.858,0,0,1,1.88.861,4.759,4.759,0,0,1,1.436,1.873,6.172,6.172,0,0,1,.506,2.516,5.617,5.617,0,0,1-1.162,3.767A5.115,5.115,0,0,1,39.43-9.105L46.32,0H42.643L35.984-8.955ZM54.605.779,45.678-20.016h3.377L53.539-9.352q.4.93.656,1.716a14.067,14.067,0,0,1,.41,1.5q.178-.752.451-1.559T55.7-9.352L60.17-20.016h3.363ZM65.611,0V-20.016h3.254V0ZM89.605-15.148a10.017,10.017,0,0,0-2.919-1.764,8.979,8.979,0,0,0-3.233-.588,7.135,7.135,0,0,0-5.339,2.105,7.475,7.475,0,0,0-2.058,5.455,7.444,7.444,0,0,0,2,5.346,6.677,6.677,0,0,0,5.052,2.105A9.2,9.2,0,0,0,86.5-3.117a10.728,10.728,0,0,0,3.083-1.9V-1.34A9.6,9.6,0,0,1,86.721.068a11.578,11.578,0,0,1-3.35.465,11.692,11.692,0,0,1-4.245-.752A9.856,9.856,0,0,1,75.7-2.434a9.846,9.846,0,0,1-2.249-3.384,10.983,10.983,0,0,1-.786-4.149,10.88,10.88,0,0,1,.786-4.136,9.973,9.973,0,0,1,2.276-3.4,10.031,10.031,0,0,1,3.418-2.235,11.284,11.284,0,0,1,4.17-.759,10.952,10.952,0,0,1,3.363.513,11.78,11.78,0,0,1,3.1,1.552ZM93.639,0V-20.016h11.17v2.762H96.893v5.018h7.916v2.857H96.893v6.467h7.916V0Z" transform="translate(-1.148 20.494)" fill="#050521"/>
</svg>
