<svg xmlns="http://www.w3.org/2000/svg" width="83.385" height="21.273" viewBox="0 0 83.385 21.273">
  <path id="パス_62" data-name="パス 62" d="M8.654.779-.273-20.016H3.1L7.588-9.352q.4.93.656,1.716a14.067,14.067,0,0,1,.41,1.5q.178-.752.451-1.559t.643-1.654l4.471-10.664h3.363ZM36.736-9.967a7.612,7.612,0,0,0-.554-2.885,7.481,7.481,0,0,0-1.593-2.434,7.052,7.052,0,0,0-2.345-1.62,7.1,7.1,0,0,0-2.81-.567,7.175,7.175,0,0,0-2.81.561,7.163,7.163,0,0,0-2.372,1.627,7.24,7.24,0,0,0-1.586,2.42,7.731,7.731,0,0,0-.547,2.9A7.591,7.591,0,0,0,22.668-7.1a7.427,7.427,0,0,0,1.586,2.42,7.183,7.183,0,0,0,2.365,1.627,7.159,7.159,0,0,0,2.816.561,7.042,7.042,0,0,0,2.782-.561A7.354,7.354,0,0,0,34.59-4.676,7.5,7.5,0,0,0,36.183-7.1,7.525,7.525,0,0,0,36.736-9.967Zm3.391,0a10.291,10.291,0,0,1-.8,4.033A10.24,10.24,0,0,1,37-2.543,10.947,10.947,0,0,1,33.51-.26a10.672,10.672,0,0,1-4.074.793,10.815,10.815,0,0,1-4.122-.8,10.623,10.623,0,0,1-3.466-2.276A10.191,10.191,0,0,1,19.523-5.92a10.337,10.337,0,0,1-.793-4.047,10.4,10.4,0,0,1,.793-4.047,10.3,10.3,0,0,1,2.324-3.4,10.6,10.6,0,0,1,3.473-2.27,10.943,10.943,0,0,1,4.115-.779,10.855,10.855,0,0,1,4.095.779A10.622,10.622,0,0,1,37-17.418a10.517,10.517,0,0,1,2.331,3.425A10.306,10.306,0,0,1,40.127-9.967ZM43.914,0V-20.016h3.254V0ZM67.908-15.148a10.017,10.017,0,0,0-2.919-1.764,8.979,8.979,0,0,0-3.233-.588,7.135,7.135,0,0,0-5.339,2.105,7.475,7.475,0,0,0-2.058,5.455,7.444,7.444,0,0,0,2,5.346,6.677,6.677,0,0,0,5.052,2.105A9.2,9.2,0,0,0,64.8-3.117a10.728,10.728,0,0,0,3.083-1.9V-1.34A9.6,9.6,0,0,1,65.023.068a11.578,11.578,0,0,1-3.35.465,11.692,11.692,0,0,1-4.245-.752A9.856,9.856,0,0,1,54-2.434a9.846,9.846,0,0,1-2.249-3.384,10.983,10.983,0,0,1-.786-4.149,10.88,10.88,0,0,1,.786-4.136,9.973,9.973,0,0,1,2.276-3.4,10.031,10.031,0,0,1,3.418-2.235,11.284,11.284,0,0,1,4.17-.759,10.952,10.952,0,0,1,3.363.513,11.78,11.78,0,0,1,3.1,1.552ZM71.941,0V-20.016h11.17v2.762H75.2v5.018h7.916v2.857H75.2v6.467h7.916V0Z" transform="translate(0.273 20.494)" fill="#050521"/>
</svg>
