<svg xmlns="http://www.w3.org/2000/svg" width="97.781" height="21.588" viewBox="0 0 97.781 21.588">
  <path id="パス_60" data-name="パス 60" d="M-.082-20.016H3.131l3.787,10.1q.369,1,.622,1.75t.444,1.408q.479-1.586,1-3.1.068-.191.1-.26L13.1-20.809l4.238,10.9q.3.793.567,1.586t.5,1.6q.137-.615.369-1.354t.6-1.75l3.76-10.186h3.24L18.621.779,14.055-10.637q-.3-.766-.547-1.47t-.437-1.333q-.232.807-.465,1.511t-.479,1.347L7.643.779Zm45.8,10.049a7.612,7.612,0,0,0-.554-2.885,7.481,7.481,0,0,0-1.593-2.434,7.052,7.052,0,0,0-2.345-1.62,7.1,7.1,0,0,0-2.81-.567,7.175,7.175,0,0,0-2.81.561,7.163,7.163,0,0,0-2.372,1.627,7.24,7.24,0,0,0-1.586,2.42,7.731,7.731,0,0,0-.547,2.9A7.591,7.591,0,0,0,31.65-7.1a7.427,7.427,0,0,0,1.586,2.42A7.183,7.183,0,0,0,35.6-3.049a7.159,7.159,0,0,0,2.816.561A7.042,7.042,0,0,0,41.2-3.049a7.354,7.354,0,0,0,2.372-1.627A7.5,7.5,0,0,0,45.165-7.1,7.525,7.525,0,0,0,45.719-9.967Zm3.391,0a10.291,10.291,0,0,1-.8,4.033,10.24,10.24,0,0,1-2.331,3.391A10.947,10.947,0,0,1,42.492-.26a10.672,10.672,0,0,1-4.074.793,10.815,10.815,0,0,1-4.122-.8A10.623,10.623,0,0,1,30.83-2.543,10.191,10.191,0,0,1,28.506-5.92a10.337,10.337,0,0,1-.793-4.047,10.4,10.4,0,0,1,.793-4.047,10.3,10.3,0,0,1,2.324-3.4,10.6,10.6,0,0,1,3.473-2.27,10.943,10.943,0,0,1,4.115-.779,10.855,10.855,0,0,1,4.095.779,10.622,10.622,0,0,1,3.466,2.27,10.517,10.517,0,0,1,2.331,3.425A10.306,10.306,0,0,1,49.109-9.967ZM56.1-11.484h.588a6.564,6.564,0,0,0,3.432-.6,2.44,2.44,0,0,0,.848-2.133,2.723,2.723,0,0,0-.909-2.331,5.979,5.979,0,0,0-3.37-.677H56.1Zm-.205,2.529V0H52.842V-20.016h4.539a14.228,14.228,0,0,1,3.1.26,4.858,4.858,0,0,1,1.88.861,4.759,4.759,0,0,1,1.436,1.873,6.172,6.172,0,0,1,.506,2.516,5.617,5.617,0,0,1-1.162,3.767,5.115,5.115,0,0,1-3.432,1.634L66.6,0H62.918L56.26-8.955ZM68.523,0V-20.016h3.254v8.285l7.191-8.285h3.979l-7.93,8.9L83.891,0h-4.2L71.777-10.227V0ZM84.738-4.006l2.6-1.2a3.581,3.581,0,0,0,1.354,2.044,4.22,4.22,0,0,0,2.516.7,3.219,3.219,0,0,0,2.3-.807,2.83,2.83,0,0,0,.854-2.16q0-1.764-2.926-3.145-.41-.205-.629-.3A14.132,14.132,0,0,1,86.4-11.792a4.786,4.786,0,0,1-1.1-3.192,5.119,5.119,0,0,1,1.661-3.965,6.2,6.2,0,0,1,4.354-1.518,7.354,7.354,0,0,1,3.705.854,4.5,4.5,0,0,1,2.064,2.454l-2.543,1.313a4.238,4.238,0,0,0-1.319-1.381,3.1,3.1,0,0,0-1.647-.437,3.033,3.033,0,0,0-2.085.684,2.324,2.324,0,0,0-.772,1.832q0,1.8,3.391,3.363.26.123.41.191a12.06,12.06,0,0,1,4.074,2.673A4.866,4.866,0,0,1,97.7-5.66a5.889,5.889,0,0,1-1.791,4.519A6.8,6.8,0,0,1,91.068.533a7,7,0,0,1-4.19-1.176A5.5,5.5,0,0,1,84.738-4.006Z" transform="translate(0.082 20.809)" fill="#050521"/>
</svg>
